<mxfile host="Electron" agent="Mozilla/5.0 (X11; Linux x86_64) AppleWebKit/537.36 (KHTML, like Gecko) draw.io/24.7.8 Chrome/128.0.6613.36 Electron/32.0.1 Safari/537.36" version="24.7.8">
  <diagram name="Page-1" id="uv08AOZ6mMlMSBBU4YNU">
    <mxGraphModel dx="613" dy="672" grid="1" gridSize="10" guides="1" tooltips="1" connect="1" arrows="1" fold="1" page="1" pageScale="1" pageWidth="850" pageHeight="1100" math="1" shadow="0">
      <root>
        <mxCell id="0" />
        <mxCell id="1" parent="0" />
        <mxCell id="McXWcMlvpWCbYQEXJP_0-1" value="" style="endArrow=none;html=1;rounded=0;dashed=1;strokeWidth=2;fillColor=#f8cecc;strokeColor=#b85450;" parent="1" edge="1">
          <mxGeometry width="50" height="50" relative="1" as="geometry">
            <mxPoint x="120" y="240" as="sourcePoint" />
            <mxPoint x="280" y="240" as="targetPoint" />
          </mxGeometry>
        </mxCell>
        <mxCell id="McXWcMlvpWCbYQEXJP_0-2" value="" style="endArrow=none;html=1;rounded=0;dashed=1;strokeWidth=2;fillColor=#dae8fc;strokeColor=#6c8ebf;" parent="1" edge="1">
          <mxGeometry width="50" height="50" relative="1" as="geometry">
            <mxPoint x="120" y="400" as="sourcePoint" />
            <mxPoint x="280" y="400" as="targetPoint" />
          </mxGeometry>
        </mxCell>
        <mxCell id="McXWcMlvpWCbYQEXJP_0-3" value="" style="endArrow=none;html=1;rounded=0;dashed=1;strokeWidth=3;fillColor=#e1d5e7;strokeColor=#9673a6;dashPattern=1 2;" parent="1" edge="1">
          <mxGeometry width="50" height="50" relative="1" as="geometry">
            <mxPoint x="80" y="320" as="sourcePoint" />
            <mxPoint x="280" y="320" as="targetPoint" />
          </mxGeometry>
        </mxCell>
        <mxCell id="McXWcMlvpWCbYQEXJP_0-4" value="" style="endArrow=none;html=1;rounded=0;fillColor=#d5e8d4;strokeColor=#82b366;strokeWidth=2;" parent="1" edge="1">
          <mxGeometry width="50" height="50" relative="1" as="geometry">
            <mxPoint x="150" y="290" as="sourcePoint" />
            <mxPoint x="280" y="290" as="targetPoint" />
          </mxGeometry>
        </mxCell>
        <mxCell id="McXWcMlvpWCbYQEXJP_0-5" value="&lt;font style=&quot;font-size: 14px;&quot;&gt;0.5vref&lt;/font&gt;" style="text;html=1;align=center;verticalAlign=middle;whiteSpace=wrap;rounded=0;" parent="1" vertex="1">
          <mxGeometry x="70" y="290" width="60" height="30" as="geometry" />
        </mxCell>
        <mxCell id="McXWcMlvpWCbYQEXJP_0-6" value="" style="endArrow=blockThin;html=1;rounded=0;endFill=1;strokeColor=#999999;dashed=1;dashPattern=1 1;" parent="1" edge="1">
          <mxGeometry width="50" height="50" relative="1" as="geometry">
            <mxPoint x="280" y="290" as="sourcePoint" />
            <mxPoint x="320" y="260" as="targetPoint" />
          </mxGeometry>
        </mxCell>
        <mxCell id="McXWcMlvpWCbYQEXJP_0-7" value="" style="endArrow=none;html=1;rounded=0;fillColor=#d5e8d4;strokeColor=#82b366;strokeWidth=2;" parent="1" edge="1">
          <mxGeometry width="50" height="50" relative="1" as="geometry">
            <mxPoint x="320" y="260" as="sourcePoint" />
            <mxPoint x="450" y="260" as="targetPoint" />
          </mxGeometry>
        </mxCell>
        <mxCell id="McXWcMlvpWCbYQEXJP_0-9" value="" style="endArrow=none;html=1;rounded=0;dashed=1;strokeWidth=2;fillColor=#f8cecc;strokeColor=#b85450;" parent="1" edge="1">
          <mxGeometry width="50" height="50" relative="1" as="geometry">
            <mxPoint x="292" y="160" as="sourcePoint" />
            <mxPoint x="452" y="160" as="targetPoint" />
          </mxGeometry>
        </mxCell>
        <mxCell id="McXWcMlvpWCbYQEXJP_0-10" value="" style="endArrow=none;html=1;rounded=0;dashed=1;strokeWidth=3;fillColor=#e1d5e7;strokeColor=#9673a6;dashPattern=1 2;" parent="1" edge="1">
          <mxGeometry width="50" height="50" relative="1" as="geometry">
            <mxPoint x="302" y="240" as="sourcePoint" />
            <mxPoint x="452" y="240" as="targetPoint" />
          </mxGeometry>
        </mxCell>
        <mxCell id="McXWcMlvpWCbYQEXJP_0-11" value="" style="endArrow=none;html=1;rounded=0;dashed=1;strokeWidth=2;fillColor=#dae8fc;strokeColor=#6c8ebf;" parent="1" edge="1">
          <mxGeometry width="50" height="50" relative="1" as="geometry">
            <mxPoint x="300" y="320" as="sourcePoint" />
            <mxPoint x="440" y="320" as="targetPoint" />
          </mxGeometry>
        </mxCell>
        <mxCell id="McXWcMlvpWCbYQEXJP_0-12" value="&lt;font style=&quot;font-size: 14px;&quot;&gt;(xi-0.5vref)x2&lt;/font&gt;" style="text;html=1;align=center;verticalAlign=middle;whiteSpace=wrap;rounded=0;" parent="1" vertex="1">
          <mxGeometry x="212" y="256" width="90" height="30" as="geometry" />
        </mxCell>
        <mxCell id="McXWcMlvpWCbYQEXJP_0-13" value="&lt;font style=&quot;font-size: 16px;&quot;&gt;B&amp;lt;i&amp;gt;=1&lt;/font&gt;" style="text;html=1;align=center;verticalAlign=middle;whiteSpace=wrap;rounded=0;" parent="1" vertex="1">
          <mxGeometry x="170" y="420" width="60" height="30" as="geometry" />
        </mxCell>
        <mxCell id="McXWcMlvpWCbYQEXJP_0-14" value="&lt;font style=&quot;font-size: 16px;&quot;&gt;B&amp;lt;i-1&amp;gt;=0&lt;/font&gt;" style="text;html=1;align=center;verticalAlign=middle;whiteSpace=wrap;rounded=0;" parent="1" vertex="1">
          <mxGeometry x="340" y="420" width="80" height="30" as="geometry" />
        </mxCell>
        <mxCell id="McXWcMlvpWCbYQEXJP_0-15" value="" style="endArrow=none;html=1;rounded=0;dashed=1;strokeWidth=2;fillColor=#dae8fc;strokeColor=#6c8ebf;" parent="1" edge="1">
          <mxGeometry width="50" height="50" relative="1" as="geometry">
            <mxPoint x="480" y="320" as="sourcePoint" />
            <mxPoint x="620" y="320" as="targetPoint" />
          </mxGeometry>
        </mxCell>
        <mxCell id="McXWcMlvpWCbYQEXJP_0-16" value="" style="endArrow=none;html=1;rounded=0;fillColor=#d5e8d4;strokeColor=#82b366;strokeWidth=2;" parent="1" edge="1">
          <mxGeometry width="50" height="50" relative="1" as="geometry">
            <mxPoint x="480" y="200" as="sourcePoint" />
            <mxPoint x="610" y="200" as="targetPoint" />
          </mxGeometry>
        </mxCell>
        <mxCell id="McXWcMlvpWCbYQEXJP_0-17" value="" style="endArrow=none;html=1;rounded=0;dashed=1;strokeWidth=3;fillColor=#e1d5e7;strokeColor=#9673a6;dashPattern=1 2;" parent="1" edge="1">
          <mxGeometry width="50" height="50" relative="1" as="geometry">
            <mxPoint x="470" y="240" as="sourcePoint" />
            <mxPoint x="630" y="240" as="targetPoint" />
          </mxGeometry>
        </mxCell>
        <mxCell id="McXWcMlvpWCbYQEXJP_0-18" value="" style="endArrow=none;html=1;rounded=0;dashed=1;strokeWidth=2;fillColor=#f8cecc;strokeColor=#b85450;" parent="1" edge="1">
          <mxGeometry width="50" height="50" relative="1" as="geometry">
            <mxPoint x="480" y="160" as="sourcePoint" />
            <mxPoint x="640" y="160" as="targetPoint" />
          </mxGeometry>
        </mxCell>
        <mxCell id="McXWcMlvpWCbYQEXJP_0-19" value="" style="endArrow=blockThin;html=1;rounded=0;endFill=1;strokeColor=#999999;dashed=1;dashPattern=1 1;" parent="1" edge="1">
          <mxGeometry width="50" height="50" relative="1" as="geometry">
            <mxPoint x="450" y="260" as="sourcePoint" />
            <mxPoint x="480" y="200" as="targetPoint" />
          </mxGeometry>
        </mxCell>
        <mxCell id="McXWcMlvpWCbYQEXJP_0-20" value="&lt;font style=&quot;font-size: 14px;&quot;&gt;(x_{i-1}-0)x2&lt;/font&gt;" style="text;html=1;align=center;verticalAlign=middle;whiteSpace=wrap;rounded=0;" parent="1" vertex="1">
          <mxGeometry x="390" y="210" width="80" height="30" as="geometry" />
        </mxCell>
        <mxCell id="McXWcMlvpWCbYQEXJP_0-22" value="" style="shape=flexArrow;endArrow=classic;startArrow=classic;html=1;rounded=0;endWidth=11.38888888888889;endSize=6.222222222222221;startWidth=8.61111111111111;startSize=6.222222222222221;fillColor=#f8cecc;strokeColor=#b85450;textOpacity=0;opacity=50;" parent="1" edge="1">
          <mxGeometry width="100" height="100" relative="1" as="geometry">
            <mxPoint x="210" y="330" as="sourcePoint" />
            <mxPoint x="210" y="280" as="targetPoint" />
          </mxGeometry>
        </mxCell>
        <mxCell id="McXWcMlvpWCbYQEXJP_0-23" value="" style="shape=flexArrow;endArrow=classic;startArrow=classic;html=1;rounded=0;endWidth=11.38888888888889;endSize=6.222222222222221;startWidth=8.61111111111111;startSize=6.222222222222221;fillColor=#f8cecc;strokeColor=#b85450;textOpacity=0;opacity=50;" parent="1" edge="1">
          <mxGeometry width="100" height="100" relative="1" as="geometry">
            <mxPoint x="380" y="320" as="sourcePoint" />
            <mxPoint x="379.71000000000004" y="260" as="targetPoint" />
          </mxGeometry>
        </mxCell>
        <mxCell id="McXWcMlvpWCbYQEXJP_0-24" value="" style="shape=flexArrow;endArrow=classic;startArrow=classic;html=1;rounded=0;endWidth=11.38888888888889;endSize=6.222222222222221;startWidth=8.61111111111111;startSize=6.222222222222221;fillColor=#f8cecc;strokeColor=#b85450;textOpacity=0;opacity=50;" parent="1" edge="1">
          <mxGeometry width="100" height="100" relative="1" as="geometry">
            <mxPoint x="540" y="320" as="sourcePoint" />
            <mxPoint x="540" y="200" as="targetPoint" />
          </mxGeometry>
        </mxCell>
        <mxCell id="McXWcMlvpWCbYQEXJP_0-25" value="&lt;font style=&quot;font-size: 16px;&quot;&gt;B&amp;lt;i-2&amp;gt;=1&lt;/font&gt;" style="text;html=1;align=center;verticalAlign=middle;whiteSpace=wrap;rounded=0;" parent="1" vertex="1">
          <mxGeometry x="520" y="420" width="80" height="30" as="geometry" />
        </mxCell>
        <mxCell id="Naa4tku9Nq_RkN_x5SY7-1" value="&lt;font style=&quot;font-size: 14px;&quot;&gt;vref&lt;/font&gt;" style="text;html=1;align=center;verticalAlign=middle;whiteSpace=wrap;rounded=0;" parent="1" vertex="1">
          <mxGeometry x="70" y="215" width="60" height="30" as="geometry" />
        </mxCell>
        <mxCell id="Naa4tku9Nq_RkN_x5SY7-2" value="&lt;font style=&quot;font-size: 14px;&quot;&gt;0&lt;/font&gt;" style="text;html=1;align=center;verticalAlign=middle;whiteSpace=wrap;rounded=0;" parent="1" vertex="1">
          <mxGeometry x="70" y="380" width="60" height="30" as="geometry" />
        </mxCell>
        <mxCell id="Naa4tku9Nq_RkN_x5SY7-3" value="&lt;font style=&quot;font-size: 14px;&quot;&gt;0.5vref&lt;/font&gt;" style="text;html=1;align=center;verticalAlign=middle;whiteSpace=wrap;rounded=0;" parent="1" vertex="1">
          <mxGeometry x="310" y="215" width="60" height="30" as="geometry" />
        </mxCell>
        <mxCell id="Naa4tku9Nq_RkN_x5SY7-4" value="&lt;font style=&quot;font-size: 14px;&quot;&gt;vref&lt;/font&gt;" style="text;html=1;align=center;verticalAlign=middle;whiteSpace=wrap;rounded=0;" parent="1" vertex="1">
          <mxGeometry x="310" y="136" width="60" height="30" as="geometry" />
        </mxCell>
        <mxCell id="Naa4tku9Nq_RkN_x5SY7-5" value="&lt;font style=&quot;font-size: 14px;&quot;&gt;0&lt;/font&gt;" style="text;html=1;align=center;verticalAlign=middle;whiteSpace=wrap;rounded=0;" parent="1" vertex="1">
          <mxGeometry x="310" y="296" width="60" height="30" as="geometry" />
        </mxCell>
      </root>
    </mxGraphModel>
  </diagram>
</mxfile>
